<svg width="1280" height="832" viewBox="0 0 1280 832" fill="none" xmlns="http://www.w3.org/2000/svg">
<rect width="1280" height="832" rx="30" fill="#010516"/>
<path d="M54.0227 61V37.7273H58.9432V56.9432H68.9205V61H54.0227ZM79.9744 61.3409C78.2093 61.3409 76.6828 60.9659 75.3949 60.2159C74.1146 59.4583 73.1259 58.4053 72.429 57.0568C71.732 55.7008 71.3835 54.1288 71.3835 52.3409C71.3835 50.5379 71.732 48.9621 72.429 47.6136C73.1259 46.2576 74.1146 45.2045 75.3949 44.4545C76.6828 43.697 78.2093 43.3182 79.9744 43.3182C81.7396 43.3182 83.2623 43.697 84.5426 44.4545C85.8305 45.2045 86.8229 46.2576 87.5199 47.6136C88.2169 48.9621 88.5653 50.5379 88.5653 52.3409C88.5653 54.1288 88.2169 55.7008 87.5199 57.0568C86.8229 58.4053 85.8305 59.4583 84.5426 60.2159C83.2623 60.9659 81.7396 61.3409 79.9744 61.3409ZM79.9972 57.5909C80.8002 57.5909 81.4706 57.3636 82.0085 56.9091C82.5464 56.447 82.9517 55.8182 83.2244 55.0227C83.5047 54.2273 83.6449 53.322 83.6449 52.3068C83.6449 51.2917 83.5047 50.3864 83.2244 49.5909C82.9517 48.7955 82.5464 48.1667 82.0085 47.7045C81.4706 47.2424 80.8002 47.0114 79.9972 47.0114C79.1866 47.0114 78.5047 47.2424 77.9517 47.7045C77.4063 48.1667 76.9934 48.7955 76.7131 49.5909C76.4403 50.3864 76.304 51.2917 76.304 52.3068C76.304 53.322 76.4403 54.2273 76.7131 55.0227C76.9934 55.8182 77.4063 56.447 77.9517 56.9091C78.5047 57.3636 79.1866 57.5909 79.9972 57.5909ZM99.5767 67.9091C98.0085 67.9091 96.6638 67.6932 95.5426 67.2614C94.429 66.8371 93.5426 66.2576 92.8835 65.5227C92.2244 64.7879 91.7964 63.9621 91.5994 63.0455L96.0767 62.4432C96.2131 62.7917 96.429 63.1174 96.7244 63.4205C97.0199 63.7235 97.41 63.9659 97.8949 64.1477C98.3873 64.3371 98.9858 64.4318 99.6903 64.4318C100.743 64.4318 101.611 64.1742 102.293 63.6591C102.982 63.1515 103.327 62.2992 103.327 61.1023V57.9091H103.122C102.91 58.3939 102.592 58.8523 102.168 59.2841C101.743 59.7159 101.198 60.0682 100.531 60.3409C99.8646 60.6136 99.0691 60.75 98.1449 60.75C96.8343 60.75 95.6411 60.447 94.5653 59.8409C93.4972 59.2273 92.6449 58.2917 92.0085 57.0341C91.3797 55.7689 91.0653 54.1705 91.0653 52.2386C91.0653 50.2614 91.3873 48.6098 92.0312 47.2841C92.6752 45.9583 93.5313 44.9659 94.5994 44.3068C95.6752 43.6477 96.8532 43.3182 98.1335 43.3182C99.1108 43.3182 99.929 43.4848 100.588 43.8182C101.247 44.1439 101.777 44.553 102.179 45.0455C102.588 45.5303 102.902 46.0076 103.122 46.4773H103.304V43.5455H108.111V61.1705C108.111 62.6553 107.747 63.8977 107.02 64.8977C106.293 65.8977 105.285 66.6477 103.997 67.1477C102.717 67.6553 101.243 67.9091 99.5767 67.9091ZM99.679 57.1136C100.459 57.1136 101.118 56.9205 101.656 56.5341C102.202 56.1402 102.618 55.5795 102.906 54.8523C103.202 54.1174 103.349 53.2386 103.349 52.2159C103.349 51.1932 103.205 50.3068 102.918 49.5568C102.63 48.7992 102.213 48.2121 101.668 47.7955C101.122 47.3788 100.459 47.1705 99.679 47.1705C98.8835 47.1705 98.2131 47.3864 97.6676 47.8182C97.1222 48.2424 96.7093 48.8333 96.429 49.5909C96.1487 50.3485 96.0085 51.2235 96.0085 52.2159C96.0085 53.2235 96.1487 54.0947 96.429 54.8295C96.7169 55.5568 97.1297 56.1212 97.6676 56.5227C98.2131 56.9167 98.8835 57.1136 99.679 57.1136ZM119.849 61.3409C118.084 61.3409 116.558 60.9659 115.27 60.2159C113.99 59.4583 113.001 58.4053 112.304 57.0568C111.607 55.7008 111.259 54.1288 111.259 52.3409C111.259 50.5379 111.607 48.9621 112.304 47.6136C113.001 46.2576 113.99 45.2045 115.27 44.4545C116.558 43.697 118.084 43.3182 119.849 43.3182C121.615 43.3182 123.137 43.697 124.418 44.4545C125.705 45.2045 126.698 46.2576 127.395 47.6136C128.092 48.9621 128.44 50.5379 128.44 52.3409C128.44 54.1288 128.092 55.7008 127.395 57.0568C126.698 58.4053 125.705 59.4583 124.418 60.2159C123.137 60.9659 121.615 61.3409 119.849 61.3409ZM119.872 57.5909C120.675 57.5909 121.346 57.3636 121.884 56.9091C122.421 56.447 122.827 55.8182 123.099 55.0227C123.38 54.2273 123.52 53.322 123.52 52.3068C123.52 51.2917 123.38 50.3864 123.099 49.5909C122.827 48.7955 122.421 48.1667 121.884 47.7045C121.346 47.2424 120.675 47.0114 119.872 47.0114C119.062 47.0114 118.38 47.2424 117.827 47.7045C117.281 48.1667 116.868 48.7955 116.588 49.5909C116.315 50.3864 116.179 51.2917 116.179 52.3068C116.179 53.322 116.315 54.2273 116.588 55.0227C116.868 55.8182 117.281 56.447 117.827 56.9091C118.38 57.3636 119.062 57.5909 119.872 57.5909Z" fill="white"/>
<rect x="1098" y="36" width="118" height="27" rx="13.5" stroke="white" stroke-width="2"/>
<path d="M1125.1 57.22C1123.94 57.22 1122.94 57.0333 1122.1 56.66C1121.27 56.2733 1120.51 55.6933 1119.82 54.92L1121.86 52.9C1122.31 53.42 1122.81 53.8267 1123.36 54.12C1123.92 54.4 1124.57 54.54 1125.3 54.54C1125.97 54.54 1126.48 54.42 1126.84 54.18C1127.21 53.94 1127.4 53.6067 1127.4 53.18C1127.4 52.7933 1127.28 52.48 1127.04 52.24C1126.8 52 1126.48 51.7933 1126.08 51.62C1125.69 51.4467 1125.26 51.28 1124.78 51.12C1124.31 50.96 1123.85 50.78 1123.38 50.58C1122.91 50.3667 1122.48 50.1067 1122.08 49.8C1121.69 49.48 1121.38 49.0867 1121.14 48.62C1120.9 48.14 1120.78 47.54 1120.78 46.82C1120.78 45.9533 1120.99 45.2067 1121.4 44.58C1121.83 43.9533 1122.41 43.48 1123.16 43.16C1123.91 42.8267 1124.77 42.66 1125.74 42.66C1126.73 42.66 1127.63 42.8333 1128.44 43.18C1129.27 43.5267 1129.95 44 1130.48 44.6L1128.44 46.62C1128.01 46.18 1127.58 45.8533 1127.14 45.64C1126.71 45.4267 1126.23 45.32 1125.68 45.32C1125.13 45.32 1124.7 45.4267 1124.38 45.64C1124.06 45.84 1123.9 46.1333 1123.9 46.52C1123.9 46.88 1124.02 47.1733 1124.26 47.4C1124.5 47.6133 1124.81 47.8 1125.2 47.96C1125.6 48.12 1126.03 48.28 1126.5 48.44C1126.98 48.6 1127.45 48.7867 1127.92 49C1128.39 49.2133 1128.81 49.4867 1129.2 49.82C1129.6 50.14 1129.92 50.5533 1130.16 51.06C1130.4 51.5533 1130.52 52.1667 1130.52 52.9C1130.52 54.2467 1130.04 55.3067 1129.08 56.08C1128.12 56.84 1126.79 57.22 1125.1 57.22ZM1132.24 57V47.28H1135.3V57H1132.24ZM1133.78 45.94C1133.3 45.94 1132.9 45.78 1132.58 45.46C1132.27 45.1267 1132.12 44.7267 1132.12 44.26C1132.12 43.78 1132.27 43.38 1132.58 43.06C1132.9 42.74 1133.3 42.58 1133.78 42.58C1134.26 42.58 1134.65 42.74 1134.96 43.06C1135.27 43.38 1135.42 43.78 1135.42 44.26C1135.42 44.7267 1135.27 45.1267 1134.96 45.46C1134.65 45.78 1134.26 45.94 1133.78 45.94ZM1141.58 61.36C1140.51 61.36 1139.57 61.1733 1138.76 60.8C1137.96 60.44 1137.32 59.9267 1136.86 59.26L1138.74 57.38C1139.08 57.7933 1139.47 58.1067 1139.9 58.32C1140.34 58.5333 1140.86 58.64 1141.48 58.64C1142.24 58.64 1142.83 58.4533 1143.26 58.08C1143.7 57.7067 1143.92 57.18 1143.92 56.5V54.02L1144.44 51.9L1143.98 49.78V47.28H1146.98V56.42C1146.98 57.42 1146.74 58.2867 1146.28 59.02C1145.81 59.7533 1145.17 60.3267 1144.36 60.74C1143.54 61.1533 1142.62 61.36 1141.58 61.36ZM1141.44 56.7C1140.54 56.7 1139.75 56.4867 1139.06 56.06C1138.36 55.6333 1137.82 55.0533 1137.42 54.32C1137.02 53.5867 1136.82 52.7733 1136.82 51.88C1136.82 50.9733 1137.02 50.16 1137.42 49.44C1137.82 48.7067 1138.36 48.1333 1139.06 47.72C1139.75 47.2933 1140.54 47.08 1141.44 47.08C1142.1 47.08 1142.7 47.2067 1143.22 47.46C1143.75 47.7 1144.18 48.0467 1144.5 48.5C1144.83 48.94 1145.02 49.4533 1145.06 50.04V53.74C1145.02 54.3133 1144.83 54.8267 1144.5 55.28C1144.18 55.72 1143.75 56.0667 1143.22 56.32C1142.68 56.5733 1142.09 56.7 1141.44 56.7ZM1142.02 53.98C1142.44 53.98 1142.81 53.8867 1143.12 53.7C1143.44 53.5133 1143.68 53.2667 1143.84 52.96C1144.01 52.64 1144.1 52.28 1144.1 51.88C1144.1 51.48 1144.01 51.12 1143.84 50.8C1143.68 50.48 1143.44 50.2267 1143.12 50.04C1142.81 49.8533 1142.44 49.76 1142.02 49.76C1141.6 49.76 1141.24 49.8533 1140.92 50.04C1140.6 50.2267 1140.35 50.48 1140.18 50.8C1140 51.12 1139.92 51.48 1139.92 51.88C1139.92 52.2533 1140 52.6067 1140.18 52.94C1140.35 53.26 1140.59 53.5133 1140.9 53.7C1141.22 53.8867 1141.59 53.98 1142.02 53.98ZM1155.55 57V51.46C1155.55 50.9533 1155.39 50.5467 1155.07 50.24C1154.77 49.92 1154.37 49.76 1153.89 49.76C1153.56 49.76 1153.27 49.8333 1153.01 49.98C1152.76 50.1133 1152.56 50.3133 1152.41 50.58C1152.27 50.8333 1152.19 51.1267 1152.19 51.46L1151.01 50.88C1151.01 50.12 1151.18 49.4533 1151.51 48.88C1151.85 48.3067 1152.31 47.8667 1152.89 47.56C1153.49 47.24 1154.17 47.08 1154.91 47.08C1155.63 47.08 1156.27 47.2533 1156.81 47.6C1157.37 47.9333 1157.81 48.38 1158.13 48.94C1158.45 49.5 1158.61 50.1133 1158.61 50.78V57H1155.55ZM1149.13 57V47.28H1152.19V57H1149.13ZM1169.07 57.22C1168.07 57.22 1167.16 57 1166.35 56.56C1165.55 56.1067 1164.92 55.4933 1164.45 54.72C1163.98 53.9467 1163.75 53.08 1163.75 52.12C1163.75 51.16 1163.98 50.3 1164.45 49.54C1164.92 48.78 1165.55 48.18 1166.35 47.74C1167.15 47.2867 1168.06 47.06 1169.07 47.06C1170.08 47.06 1170.99 47.28 1171.79 47.72C1172.59 48.16 1173.22 48.7667 1173.69 49.54C1174.16 50.3 1174.39 51.16 1174.39 52.12C1174.39 53.08 1174.16 53.9467 1173.69 54.72C1173.22 55.4933 1172.59 56.1067 1171.79 56.56C1170.99 57 1170.08 57.22 1169.07 57.22ZM1169.07 54.44C1169.51 54.44 1169.9 54.3467 1170.23 54.16C1170.56 53.96 1170.82 53.6867 1170.99 53.34C1171.18 52.98 1171.27 52.5733 1171.27 52.12C1171.27 51.6667 1171.18 51.2733 1170.99 50.94C1170.8 50.5933 1170.54 50.3267 1170.21 50.14C1169.89 49.94 1169.51 49.84 1169.07 49.84C1168.64 49.84 1168.26 49.94 1167.93 50.14C1167.6 50.3267 1167.34 50.5933 1167.15 50.94C1166.96 51.2867 1166.87 51.6867 1166.87 52.14C1166.87 52.58 1166.96 52.98 1167.15 53.34C1167.34 53.6867 1167.6 53.96 1167.93 54.16C1168.26 54.3467 1168.64 54.44 1169.07 54.44ZM1180.23 57.22C1179.34 57.22 1178.55 57.04 1177.85 56.68C1177.17 56.3067 1176.64 55.8 1176.25 55.16C1175.87 54.5067 1175.67 53.76 1175.67 52.92V47.28H1178.73V52.88C1178.73 53.2133 1178.79 53.5 1178.89 53.74C1179.01 53.98 1179.19 54.1667 1179.41 54.3C1179.64 54.4333 1179.91 54.5 1180.23 54.5C1180.69 54.5 1181.05 54.36 1181.31 54.08C1181.58 53.7867 1181.71 53.3867 1181.71 52.88V47.28H1184.77V52.9C1184.77 53.7533 1184.58 54.5067 1184.19 55.16C1183.81 55.8 1183.27 56.3067 1182.59 56.68C1181.91 57.04 1181.13 57.22 1180.23 57.22ZM1188.07 57V43.26H1191.13V57H1188.07ZM1185.87 49.88V47.28H1193.33V49.88H1185.87Z" fill="white"/>
<rect x="25" y="100" width="1229" height="3" rx="1.5" fill="#D9D9D9"/>
<path d="M50.892 381L40.9034 346.091H48.9659L54.7443 370.347H55.0341L61.4091 346.091H68.3125L74.6705 370.398H74.9773L80.7557 346.091H88.8182L78.8295 381H71.6364L64.9886 358.176H64.7159L58.0852 381H50.892ZM101.751 381.511C99.0582 381.511 96.7401 380.966 94.7969 379.875C92.8651 378.773 91.3764 377.216 90.331 375.205C89.2855 373.182 88.7628 370.79 88.7628 368.028C88.7628 365.335 89.2855 362.972 90.331 360.938C91.3764 358.903 92.848 357.318 94.7457 356.182C96.6548 355.045 98.8935 354.477 101.462 354.477C103.189 354.477 104.797 354.756 106.286 355.312C107.786 355.858 109.092 356.682 110.206 357.784C111.331 358.886 112.206 360.273 112.831 361.943C113.456 363.602 113.768 365.545 113.768 367.773V369.767H91.6605V365.267H106.933C106.933 364.222 106.706 363.295 106.251 362.489C105.797 361.682 105.166 361.051 104.359 360.597C103.564 360.131 102.638 359.898 101.581 359.898C100.479 359.898 99.5014 360.153 98.6491 360.665C97.8082 361.165 97.1491 361.841 96.6719 362.693C96.1946 363.534 95.9503 364.472 95.9389 365.506V369.784C95.9389 371.08 96.1776 372.199 96.6548 373.142C97.1435 374.085 97.831 374.812 98.7173 375.324C99.6037 375.835 100.655 376.091 101.871 376.091C102.678 376.091 103.416 375.977 104.087 375.75C104.757 375.523 105.331 375.182 105.808 374.727C106.286 374.273 106.649 373.716 106.899 373.057L113.615 373.5C113.274 375.114 112.575 376.523 111.518 377.727C110.473 378.92 109.121 379.852 107.462 380.523C105.814 381.182 103.911 381.511 101.751 381.511ZM125.768 346.091V381H118.507V346.091H125.768ZM143.415 381.511C140.733 381.511 138.426 380.943 136.494 379.807C134.574 378.659 133.097 377.068 132.062 375.034C131.04 373 130.528 370.659 130.528 368.011C130.528 365.33 131.045 362.977 132.08 360.955C133.125 358.92 134.608 357.335 136.528 356.199C138.449 355.051 140.733 354.477 143.381 354.477C145.665 354.477 147.665 354.892 149.381 355.722C151.097 356.551 152.455 357.716 153.455 359.216C154.455 360.716 155.006 362.477 155.108 364.5H148.256C148.063 363.193 147.551 362.142 146.722 361.347C145.903 360.54 144.83 360.136 143.5 360.136C142.375 360.136 141.392 360.443 140.551 361.057C139.722 361.659 139.074 362.54 138.608 363.699C138.142 364.858 137.909 366.261 137.909 367.909C137.909 369.58 138.136 371 138.591 372.17C139.057 373.341 139.71 374.233 140.551 374.847C141.392 375.46 142.375 375.767 143.5 375.767C144.33 375.767 145.074 375.597 145.733 375.256C146.403 374.915 146.955 374.42 147.386 373.773C147.83 373.114 148.119 372.324 148.256 371.403H155.108C154.994 373.403 154.449 375.165 153.472 376.688C152.506 378.199 151.17 379.381 149.466 380.233C147.761 381.085 145.744 381.511 143.415 381.511ZM171.587 381.511C168.939 381.511 166.649 380.949 164.717 379.824C162.797 378.687 161.314 377.108 160.268 375.085C159.223 373.051 158.7 370.693 158.7 368.011C158.7 365.307 159.223 362.943 160.268 360.92C161.314 358.886 162.797 357.307 164.717 356.182C166.649 355.045 168.939 354.477 171.587 354.477C174.234 354.477 176.518 355.045 178.439 356.182C180.371 357.307 181.859 358.886 182.905 360.92C183.95 362.943 184.473 365.307 184.473 368.011C184.473 370.693 183.95 373.051 182.905 375.085C181.859 377.108 180.371 378.687 178.439 379.824C176.518 380.949 174.234 381.511 171.587 381.511ZM171.621 375.886C172.825 375.886 173.831 375.545 174.638 374.864C175.445 374.17 176.053 373.227 176.462 372.034C176.882 370.841 177.092 369.483 177.092 367.96C177.092 366.438 176.882 365.08 176.462 363.886C176.053 362.693 175.445 361.75 174.638 361.057C173.831 360.364 172.825 360.017 171.621 360.017C170.405 360.017 169.382 360.364 168.553 361.057C167.734 361.75 167.115 362.693 166.695 363.886C166.286 365.08 166.081 366.438 166.081 367.96C166.081 369.483 166.286 370.841 166.695 372.034C167.115 373.227 167.734 374.17 168.553 374.864C169.382 375.545 170.405 375.886 171.621 375.886ZM189.195 381V354.818H196.115V359.438H196.422C196.967 357.903 197.876 356.693 199.149 355.807C200.422 354.92 201.945 354.477 203.717 354.477C205.513 354.477 207.041 354.926 208.303 355.824C209.564 356.71 210.405 357.915 210.825 359.438H211.098C211.632 357.938 212.598 356.739 213.996 355.841C215.405 354.932 217.07 354.477 218.99 354.477C221.433 354.477 223.416 355.256 224.939 356.812C226.473 358.358 227.24 360.551 227.24 363.392V381H219.996V364.824C219.996 363.369 219.609 362.278 218.837 361.551C218.064 360.824 217.098 360.46 215.939 360.46C214.621 360.46 213.592 360.881 212.854 361.722C212.115 362.551 211.746 363.648 211.746 365.011V381H204.706V364.67C204.706 363.386 204.337 362.364 203.598 361.602C202.871 360.841 201.911 360.46 200.717 360.46C199.911 360.46 199.183 360.665 198.536 361.074C197.899 361.472 197.393 362.034 197.018 362.761C196.643 363.477 196.456 364.318 196.456 365.284V381H189.195ZM244.908 381.511C242.214 381.511 239.896 380.966 237.953 379.875C236.021 378.773 234.533 377.216 233.487 375.205C232.442 373.182 231.919 370.79 231.919 368.028C231.919 365.335 232.442 362.972 233.487 360.938C234.533 358.903 236.004 357.318 237.902 356.182C239.811 355.045 242.05 354.477 244.618 354.477C246.345 354.477 247.953 354.756 249.442 355.312C250.942 355.858 252.249 356.682 253.362 357.784C254.487 358.886 255.362 360.273 255.987 361.943C256.612 363.602 256.925 365.545 256.925 367.773V369.767H234.817V365.267H250.089C250.089 364.222 249.862 363.295 249.408 362.489C248.953 361.682 248.322 361.051 247.516 360.597C246.72 360.131 245.794 359.898 244.737 359.898C243.635 359.898 242.658 360.153 241.805 360.665C240.964 361.165 240.305 361.841 239.828 362.693C239.351 363.534 239.107 364.472 239.095 365.506V369.784C239.095 371.08 239.334 372.199 239.811 373.142C240.3 374.085 240.987 374.812 241.874 375.324C242.76 375.835 243.811 376.091 245.027 376.091C245.834 376.091 246.572 375.977 247.243 375.75C247.913 375.523 248.487 375.182 248.964 374.727C249.442 374.273 249.805 373.716 250.055 373.057L256.771 373.5C256.43 375.114 255.732 376.523 254.675 377.727C253.629 378.92 252.277 379.852 250.618 380.523C248.97 381.182 247.067 381.511 244.908 381.511ZM286.699 354.818V360.273H270.932V354.818H286.699ZM274.511 348.545H281.773V372.955C281.773 373.625 281.875 374.148 282.08 374.523C282.284 374.886 282.568 375.142 282.932 375.29C283.307 375.437 283.739 375.511 284.227 375.511C284.568 375.511 284.909 375.483 285.25 375.426C285.591 375.358 285.852 375.307 286.034 375.273L287.176 380.676C286.813 380.79 286.301 380.92 285.642 381.068C284.983 381.227 284.182 381.324 283.239 381.358C281.489 381.426 279.955 381.193 278.636 380.659C277.33 380.125 276.313 379.295 275.585 378.17C274.858 377.045 274.5 375.625 274.511 373.909V348.545ZM302.977 381.511C300.33 381.511 298.04 380.949 296.108 379.824C294.188 378.687 292.705 377.108 291.659 375.085C290.614 373.051 290.091 370.693 290.091 368.011C290.091 365.307 290.614 362.943 291.659 360.92C292.705 358.886 294.188 357.307 296.108 356.182C298.04 355.045 300.33 354.477 302.977 354.477C305.625 354.477 307.909 355.045 309.83 356.182C311.761 357.307 313.25 358.886 314.295 360.92C315.341 362.943 315.864 365.307 315.864 368.011C315.864 370.693 315.341 373.051 314.295 375.085C313.25 377.108 311.761 378.687 309.83 379.824C307.909 380.949 305.625 381.511 302.977 381.511ZM303.011 375.886C304.216 375.886 305.222 375.545 306.028 374.864C306.835 374.17 307.443 373.227 307.852 372.034C308.273 370.841 308.483 369.483 308.483 367.96C308.483 366.438 308.273 365.08 307.852 363.886C307.443 362.693 306.835 361.75 306.028 361.057C305.222 360.364 304.216 360.017 303.011 360.017C301.795 360.017 300.773 360.364 299.943 361.057C299.125 361.75 298.506 362.693 298.085 363.886C297.676 365.08 297.472 366.438 297.472 367.96C297.472 369.483 297.676 370.841 298.085 372.034C298.506 373.227 299.125 374.17 299.943 374.864C300.773 375.545 301.795 375.886 303.011 375.886ZM338.751 346.091L345.791 357.989H346.064L353.138 346.091H361.473L350.82 363.545L361.712 381H353.223L346.064 369.085H345.791L338.632 381H330.178L341.104 363.545L330.382 346.091H338.751ZM364.098 346.091H372.365L380.325 361.125H380.666L388.626 346.091H396.893L384.161 368.659V381H376.831V368.659L364.098 346.091ZM400.55 381V376.619L417.97 352.176H400.516V346.091H427.243V350.472L409.805 374.915H427.277V381H400.55ZM43.0341 439V404.091H50.4148V418.494H65.3977V404.091H72.7614V439H65.3977V424.58H50.4148V439H43.0341ZM90.5398 439.511C87.892 439.511 85.6023 438.949 83.6705 437.824C81.75 436.687 80.267 435.108 79.2216 433.085C78.1761 431.051 77.6534 428.693 77.6534 426.011C77.6534 423.307 78.1761 420.943 79.2216 418.92C80.267 416.886 81.75 415.307 83.6705 414.182C85.6023 413.045 87.892 412.477 90.5398 412.477C93.1875 412.477 95.4716 413.045 97.392 414.182C99.3239 415.307 100.812 416.886 101.858 418.92C102.903 420.943 103.426 423.307 103.426 426.011C103.426 428.693 102.903 431.051 101.858 433.085C100.812 435.108 99.3239 436.687 97.392 437.824C95.4716 438.949 93.1875 439.511 90.5398 439.511ZM90.5739 433.886C91.7784 433.886 92.7841 433.545 93.5909 432.864C94.3977 432.17 95.0057 431.227 95.4148 430.034C95.8352 428.841 96.0455 427.483 96.0455 425.96C96.0455 424.438 95.8352 423.08 95.4148 421.886C95.0057 420.693 94.3977 419.75 93.5909 419.057C92.7841 418.364 91.7784 418.017 90.5739 418.017C89.358 418.017 88.3352 418.364 87.5057 419.057C86.6875 419.75 86.0682 420.693 85.6477 421.886C85.2386 423.08 85.0341 424.438 85.0341 425.96C85.0341 427.483 85.2386 428.841 85.6477 430.034C86.0682 431.227 86.6875 432.17 87.5057 432.864C88.3352 433.545 89.358 433.886 90.5739 433.886ZM129.932 420.284L123.284 420.693C123.17 420.125 122.926 419.614 122.551 419.159C122.176 418.693 121.682 418.324 121.068 418.051C120.466 417.767 119.744 417.625 118.903 417.625C117.778 417.625 116.83 417.864 116.057 418.341C115.284 418.807 114.898 419.432 114.898 420.216C114.898 420.841 115.148 421.369 115.648 421.801C116.148 422.233 117.006 422.58 118.222 422.841L122.96 423.795C125.506 424.318 127.403 425.159 128.653 426.318C129.903 427.477 130.528 429 130.528 430.886C130.528 432.602 130.023 434.108 129.011 435.403C128.011 436.699 126.636 437.71 124.886 438.438C123.148 439.153 121.142 439.511 118.869 439.511C115.403 439.511 112.642 438.79 110.585 437.347C108.54 435.892 107.341 433.915 106.989 431.415L114.131 431.04C114.347 432.097 114.869 432.903 115.699 433.46C116.528 434.006 117.591 434.278 118.886 434.278C120.159 434.278 121.182 434.034 121.955 433.545C122.739 433.045 123.136 432.403 123.148 431.619C123.136 430.96 122.858 430.42 122.312 430C121.767 429.568 120.926 429.239 119.79 429.011L115.256 428.108C112.699 427.597 110.795 426.71 109.545 425.449C108.307 424.187 107.688 422.58 107.688 420.625C107.688 418.943 108.142 417.494 109.051 416.278C109.972 415.062 111.261 414.125 112.92 413.466C114.591 412.807 116.545 412.477 118.784 412.477C122.091 412.477 124.693 413.176 126.591 414.574C128.5 415.972 129.614 417.875 129.932 420.284ZM135.101 448.818V412.818H142.26V417.216H142.584C142.902 416.511 143.362 415.795 143.964 415.068C144.578 414.33 145.374 413.716 146.351 413.227C147.339 412.727 148.567 412.477 150.033 412.477C151.942 412.477 153.703 412.977 155.317 413.977C156.93 414.966 158.22 416.46 159.186 418.46C160.152 420.449 160.635 422.943 160.635 425.943C160.635 428.864 160.163 431.33 159.22 433.341C158.288 435.341 157.016 436.858 155.402 437.892C153.8 438.915 152.004 439.426 150.016 439.426C148.607 439.426 147.408 439.193 146.419 438.727C145.442 438.261 144.641 437.676 144.016 436.972C143.391 436.256 142.913 435.534 142.584 434.807H142.362V448.818H135.101ZM142.209 425.909C142.209 427.466 142.425 428.824 142.857 429.983C143.288 431.142 143.913 432.045 144.732 432.693C145.55 433.33 146.544 433.648 147.714 433.648C148.896 433.648 149.896 433.324 150.714 432.676C151.533 432.017 152.152 431.108 152.572 429.949C153.004 428.778 153.22 427.432 153.22 425.909C153.22 424.398 153.01 423.068 152.589 421.92C152.169 420.773 151.55 419.875 150.732 419.227C149.913 418.58 148.908 418.256 147.714 418.256C146.533 418.256 145.533 418.568 144.714 419.193C143.908 419.818 143.288 420.705 142.857 421.852C142.425 423 142.209 424.352 142.209 425.909ZM165.476 439V412.818H172.737V439H165.476ZM169.124 409.443C168.044 409.443 167.118 409.085 166.345 408.369C165.584 407.642 165.203 406.773 165.203 405.761C165.203 404.761 165.584 403.903 166.345 403.188C167.118 402.46 168.044 402.097 169.124 402.097C170.203 402.097 171.124 402.46 171.885 403.188C172.658 403.903 173.044 404.761 173.044 405.761C173.044 406.773 172.658 407.642 171.885 408.369C171.124 409.085 170.203 409.443 169.124 409.443ZM192.48 412.818V418.273H176.713V412.818H192.48ZM180.293 406.545H187.554V430.955C187.554 431.625 187.656 432.148 187.861 432.523C188.065 432.886 188.349 433.142 188.713 433.29C189.088 433.437 189.52 433.511 190.009 433.511C190.349 433.511 190.69 433.483 191.031 433.426C191.372 433.358 191.634 433.307 191.815 433.273L192.957 438.676C192.594 438.79 192.082 438.92 191.423 439.068C190.764 439.227 189.963 439.324 189.02 439.358C187.27 439.426 185.736 439.193 184.418 438.659C183.111 438.125 182.094 437.295 181.366 436.17C180.639 435.045 180.281 433.625 180.293 431.909V406.545ZM204.676 439.494C203.006 439.494 201.517 439.205 200.21 438.625C198.903 438.034 197.869 437.165 197.108 436.017C196.358 434.858 195.983 433.415 195.983 431.688C195.983 430.233 196.25 429.011 196.784 428.023C197.318 427.034 198.045 426.239 198.966 425.636C199.886 425.034 200.932 424.58 202.102 424.273C203.284 423.966 204.523 423.75 205.818 423.625C207.341 423.466 208.568 423.318 209.5 423.182C210.432 423.034 211.108 422.818 211.528 422.534C211.949 422.25 212.159 421.83 212.159 421.273V421.17C212.159 420.091 211.818 419.256 211.136 418.665C210.466 418.074 209.511 417.778 208.273 417.778C206.966 417.778 205.926 418.068 205.153 418.648C204.381 419.216 203.869 419.932 203.619 420.795L196.903 420.25C197.244 418.659 197.915 417.284 198.915 416.125C199.915 414.955 201.205 414.057 202.784 413.432C204.375 412.795 206.216 412.477 208.307 412.477C209.761 412.477 211.153 412.648 212.483 412.989C213.824 413.33 215.011 413.858 216.045 414.574C217.091 415.29 217.915 416.21 218.517 417.335C219.119 418.449 219.42 419.784 219.42 421.341V439H212.534V435.369H212.33C211.909 436.188 211.347 436.909 210.642 437.534C209.938 438.148 209.091 438.631 208.102 438.983C207.114 439.324 205.972 439.494 204.676 439.494ZM206.756 434.483C207.824 434.483 208.767 434.273 209.585 433.852C210.403 433.42 211.045 432.841 211.511 432.114C211.977 431.386 212.21 430.562 212.21 429.642V426.864C211.983 427.011 211.67 427.148 211.273 427.273C210.886 427.386 210.449 427.494 209.96 427.597C209.472 427.687 208.983 427.773 208.494 427.852C208.006 427.92 207.562 427.983 207.165 428.04C206.313 428.165 205.568 428.364 204.932 428.636C204.295 428.909 203.801 429.278 203.449 429.744C203.097 430.199 202.92 430.767 202.92 431.449C202.92 432.438 203.278 433.193 203.994 433.716C204.722 434.227 205.642 434.483 206.756 434.483ZM232.315 404.091V439H225.054V404.091H232.315ZM259.916 420.284L253.268 420.693C253.155 420.125 252.911 419.614 252.536 419.159C252.161 418.693 251.666 418.324 251.053 418.051C250.45 417.767 249.729 417.625 248.888 417.625C247.763 417.625 246.814 417.864 246.041 418.341C245.268 418.807 244.882 419.432 244.882 420.216C244.882 420.841 245.132 421.369 245.632 421.801C246.132 422.233 246.99 422.58 248.206 422.841L252.945 423.795C255.49 424.318 257.388 425.159 258.638 426.318C259.888 427.477 260.513 429 260.513 430.886C260.513 432.602 260.007 434.108 258.996 435.403C257.996 436.699 256.621 437.71 254.871 438.438C253.132 439.153 251.126 439.511 248.854 439.511C245.388 439.511 242.626 438.79 240.57 437.347C238.524 435.892 237.325 433.915 236.973 431.415L244.115 431.04C244.331 432.097 244.854 432.903 245.683 433.46C246.513 434.006 247.575 434.278 248.871 434.278C250.143 434.278 251.166 434.034 251.939 433.545C252.723 433.045 253.121 432.403 253.132 431.619C253.121 430.96 252.842 430.42 252.297 430C251.751 429.568 250.911 429.239 249.774 429.011L245.24 428.108C242.683 427.597 240.78 426.71 239.53 425.449C238.291 424.187 237.672 422.58 237.672 420.625C237.672 418.943 238.126 417.494 239.036 416.278C239.956 415.062 241.246 414.125 242.905 413.466C244.575 412.807 246.53 412.477 248.768 412.477C252.075 412.477 254.678 413.176 256.575 414.574C258.484 415.972 259.598 417.875 259.916 420.284ZM273.761 404.091L273.097 428.534H266.858L266.176 404.091H273.761ZM269.977 439.443C268.852 439.443 267.886 439.045 267.08 438.25C266.273 437.443 265.875 436.477 265.886 435.352C265.875 434.239 266.273 433.284 267.08 432.489C267.886 431.693 268.852 431.295 269.977 431.295C271.057 431.295 272.006 431.693 272.824 432.489C273.642 433.284 274.057 434.239 274.068 435.352C274.057 436.102 273.858 436.79 273.472 437.415C273.097 438.028 272.602 438.523 271.989 438.898C271.375 439.261 270.705 439.443 269.977 439.443Z" fill="white"/>
<path d="M42.1136 492V474.545H52.6477V476.42H44.2273V482.318H52.1023V484.193H44.2273V490.125H52.7841V492H42.1136ZM58.196 484.125V492H56.1847V478.909H58.1278V480.955H58.2983C58.6051 480.29 59.071 479.756 59.696 479.352C60.321 478.943 61.1278 478.739 62.1165 478.739C63.0028 478.739 63.7784 478.92 64.4432 479.284C65.108 479.642 65.625 480.188 65.9943 480.92C66.3636 481.648 66.5483 482.568 66.5483 483.682V492H64.5369V483.818C64.5369 482.79 64.2699 481.989 63.7358 481.415C63.2017 480.835 62.4688 480.545 61.5369 480.545C60.8949 480.545 60.321 480.685 59.8153 480.963C59.3153 481.241 58.9205 481.648 58.6307 482.182C58.3409 482.716 58.196 483.364 58.196 484.125ZM75.9169 478.909V480.614H69.1328V478.909H75.9169ZM71.1101 475.773H73.1214V488.25C73.1214 488.818 73.2038 489.244 73.3686 489.528C73.5391 489.807 73.755 489.994 74.0163 490.091C74.2834 490.182 74.5646 490.227 74.8601 490.227C75.0817 490.227 75.2635 490.216 75.4055 490.193C75.5476 490.165 75.6612 490.142 75.7464 490.125L76.1555 491.932C76.0192 491.983 75.8288 492.034 75.5845 492.085C75.3402 492.142 75.0305 492.17 74.6555 492.17C74.0874 492.17 73.5305 492.048 72.9851 491.804C72.4453 491.56 71.9964 491.188 71.6385 490.688C71.2862 490.188 71.1101 489.557 71.1101 488.795V475.773ZM84.2905 492.273C83.0291 492.273 81.9411 491.994 81.0263 491.438C80.1172 490.875 79.4155 490.091 78.9212 489.085C78.4325 488.074 78.1882 486.898 78.1882 485.557C78.1882 484.216 78.4325 483.034 78.9212 482.011C79.4155 480.983 80.103 480.182 80.9837 479.608C81.87 479.028 82.9041 478.739 84.0859 478.739C84.7678 478.739 85.4411 478.852 86.1058 479.08C86.7706 479.307 87.3757 479.676 87.9212 480.188C88.4666 480.693 88.9013 481.364 89.2251 482.199C89.549 483.034 89.7109 484.062 89.7109 485.284V486.136H79.62V484.398H87.6655C87.6655 483.659 87.5178 483 87.2223 482.42C86.9325 481.841 86.5178 481.384 85.978 481.048C85.4439 480.713 84.8132 480.545 84.0859 480.545C83.2848 480.545 82.5916 480.744 82.0064 481.142C81.4268 481.534 80.9808 482.045 80.6683 482.676C80.3558 483.307 80.1996 483.983 80.1996 484.705V485.864C80.1996 486.852 80.37 487.69 80.7109 488.378C81.0575 489.06 81.5376 489.58 82.1513 489.938C82.7649 490.29 83.478 490.466 84.2905 490.466C84.8189 490.466 85.2962 490.392 85.7223 490.244C86.1541 490.091 86.5263 489.864 86.8388 489.562C87.1513 489.256 87.3928 488.875 87.5632 488.42L89.5064 488.966C89.3018 489.625 88.9581 490.205 88.4751 490.705C87.9922 491.199 87.3956 491.585 86.6854 491.864C85.9751 492.136 85.1768 492.273 84.2905 492.273ZM92.7706 492V478.909H94.7138V480.886H94.8501C95.0888 480.239 95.5206 479.713 96.1456 479.31C96.7706 478.906 97.4751 478.705 98.2592 478.705C98.407 478.705 98.5916 478.707 98.8132 478.713C99.0348 478.719 99.2024 478.727 99.3161 478.739V480.784C99.2479 480.767 99.0916 480.741 98.8473 480.707C98.6087 480.668 98.3558 480.648 98.0888 480.648C97.4524 480.648 96.8842 480.781 96.3842 481.048C95.8899 481.31 95.4979 481.673 95.2081 482.139C94.924 482.599 94.782 483.125 94.782 483.716V492H92.7706ZM109.746 496.909C109.405 496.909 109.101 496.881 108.834 496.824C108.567 496.773 108.382 496.722 108.28 496.67L108.791 494.898C109.28 495.023 109.712 495.068 110.087 495.034C110.462 495 110.794 494.832 111.084 494.531C111.379 494.236 111.649 493.756 111.893 493.091L112.268 492.068L107.428 478.909H109.609L113.223 489.341H113.359L116.973 478.909H119.155L113.598 493.909C113.348 494.585 113.038 495.145 112.669 495.588C112.3 496.037 111.871 496.369 111.382 496.585C110.899 496.801 110.354 496.909 109.746 496.909ZM126.659 492.273C125.477 492.273 124.44 491.991 123.548 491.429C122.662 490.866 121.969 490.08 121.469 489.068C120.974 488.057 120.727 486.875 120.727 485.523C120.727 484.159 120.974 482.969 121.469 481.952C121.969 480.935 122.662 480.145 123.548 479.582C124.44 479.02 125.477 478.739 126.659 478.739C127.841 478.739 128.875 479.02 129.761 479.582C130.653 480.145 131.347 480.935 131.841 481.952C132.341 482.969 132.591 484.159 132.591 485.523C132.591 486.875 132.341 488.057 131.841 489.068C131.347 490.08 130.653 490.866 129.761 491.429C128.875 491.991 127.841 492.273 126.659 492.273ZM126.659 490.466C127.557 490.466 128.295 490.236 128.875 489.776C129.455 489.315 129.884 488.71 130.162 487.96C130.44 487.21 130.58 486.398 130.58 485.523C130.58 484.648 130.44 483.832 130.162 483.077C129.884 482.321 129.455 481.71 128.875 481.244C128.295 480.778 127.557 480.545 126.659 480.545C125.761 480.545 125.023 480.778 124.443 481.244C123.864 481.71 123.435 482.321 123.156 483.077C122.878 483.832 122.739 484.648 122.739 485.523C122.739 486.398 122.878 487.21 123.156 487.96C123.435 488.71 123.864 489.315 124.443 489.776C125.023 490.236 125.761 490.466 126.659 490.466ZM143.911 486.648V478.909H145.923V492H143.911V489.784H143.775C143.468 490.449 142.991 491.014 142.343 491.48C141.695 491.94 140.877 492.17 139.888 492.17C139.07 492.17 138.343 491.991 137.707 491.634C137.07 491.27 136.57 490.724 136.207 489.997C135.843 489.264 135.661 488.341 135.661 487.227V478.909H137.673V487.091C137.673 488.045 137.94 488.807 138.474 489.375C139.013 489.943 139.701 490.227 140.536 490.227C141.036 490.227 141.545 490.099 142.062 489.844C142.585 489.588 143.022 489.196 143.374 488.668C143.732 488.139 143.911 487.466 143.911 486.648ZM149.607 492V478.909H151.55V480.886H151.686C151.925 480.239 152.357 479.713 152.982 479.31C153.607 478.906 154.311 478.705 155.095 478.705C155.243 478.705 155.428 478.707 155.649 478.713C155.871 478.719 156.038 478.727 156.152 478.739V480.784C156.084 480.767 155.928 480.741 155.683 480.707C155.445 480.668 155.192 480.648 154.925 480.648C154.288 480.648 153.72 480.781 153.22 481.048C152.726 481.31 152.334 481.673 152.044 482.139C151.76 482.599 151.618 483.125 151.618 483.716V492H149.607ZM170.229 492.273C169.138 492.273 168.175 491.997 167.34 491.446C166.505 490.889 165.852 490.105 165.38 489.094C164.908 488.077 164.673 486.875 164.673 485.489C164.673 484.114 164.908 482.92 165.38 481.909C165.852 480.898 166.508 480.116 167.349 479.565C168.19 479.014 169.161 478.739 170.263 478.739C171.116 478.739 171.789 478.881 172.283 479.165C172.783 479.443 173.164 479.761 173.425 480.119C173.692 480.472 173.9 480.761 174.048 480.989H174.218V474.545H176.229V492H174.286V489.989H174.048C173.9 490.227 173.69 490.528 173.417 490.892C173.144 491.25 172.755 491.571 172.249 491.855C171.744 492.134 171.07 492.273 170.229 492.273ZM170.502 490.466C171.309 490.466 171.991 490.256 172.548 489.835C173.104 489.409 173.528 488.821 173.817 488.071C174.107 487.315 174.252 486.443 174.252 485.455C174.252 484.477 174.11 483.622 173.826 482.889C173.542 482.151 173.121 481.577 172.565 481.168C172.008 480.753 171.32 480.545 170.502 480.545C169.65 480.545 168.94 480.764 168.371 481.202C167.809 481.634 167.386 482.222 167.102 482.966C166.823 483.705 166.684 484.534 166.684 485.455C166.684 486.386 166.826 487.233 167.11 487.994C167.4 488.75 167.826 489.352 168.388 489.801C168.957 490.244 169.661 490.466 170.502 490.466ZM185.681 492.273C184.42 492.273 183.332 491.994 182.417 491.438C181.508 490.875 180.806 490.091 180.312 489.085C179.823 488.074 179.579 486.898 179.579 485.557C179.579 484.216 179.823 483.034 180.312 482.011C180.806 480.983 181.494 480.182 182.374 479.608C183.261 479.028 184.295 478.739 185.477 478.739C186.158 478.739 186.832 478.852 187.496 479.08C188.161 479.307 188.766 479.676 189.312 480.188C189.857 480.693 190.292 481.364 190.616 482.199C190.94 483.034 191.102 484.062 191.102 485.284V486.136H181.011V484.398H189.056C189.056 483.659 188.908 483 188.613 482.42C188.323 481.841 187.908 481.384 187.369 481.048C186.835 480.713 186.204 480.545 185.477 480.545C184.675 480.545 183.982 480.744 183.397 481.142C182.817 481.534 182.371 482.045 182.059 482.676C181.746 483.307 181.59 483.983 181.59 484.705V485.864C181.59 486.852 181.761 487.69 182.102 488.378C182.448 489.06 182.928 489.58 183.542 489.938C184.156 490.29 184.869 490.466 185.681 490.466C186.21 490.466 186.687 490.392 187.113 490.244C187.545 490.091 187.917 489.864 188.229 489.562C188.542 489.256 188.783 488.875 188.954 488.42L190.897 488.966C190.692 489.625 190.349 490.205 189.866 490.705C189.383 491.199 188.786 491.585 188.076 491.864C187.366 492.136 186.567 492.273 185.681 492.273ZM199.854 478.909V480.614H193.07V478.909H199.854ZM195.048 475.773H197.059V488.25C197.059 488.818 197.141 489.244 197.306 489.528C197.477 489.807 197.692 489.994 197.954 490.091C198.221 490.182 198.502 490.227 198.798 490.227C199.019 490.227 199.201 490.216 199.343 490.193C199.485 490.165 199.599 490.142 199.684 490.125L200.093 491.932C199.957 491.983 199.766 492.034 199.522 492.085C199.278 492.142 198.968 492.17 198.593 492.17C198.025 492.17 197.468 492.048 196.923 491.804C196.383 491.56 195.934 491.188 195.576 490.688C195.224 490.188 195.048 489.557 195.048 488.795V475.773ZM206.732 492.307C205.903 492.307 205.15 492.151 204.474 491.838C203.798 491.52 203.261 491.062 202.863 490.466C202.465 489.864 202.266 489.136 202.266 488.284C202.266 487.534 202.414 486.926 202.71 486.46C203.005 485.989 203.4 485.619 203.894 485.352C204.388 485.085 204.934 484.886 205.531 484.756C206.133 484.619 206.738 484.511 207.346 484.432C208.141 484.33 208.786 484.253 209.281 484.202C209.781 484.145 210.144 484.051 210.371 483.92C210.604 483.79 210.721 483.562 210.721 483.239V483.17C210.721 482.33 210.491 481.676 210.031 481.21C209.576 480.744 208.886 480.511 207.96 480.511C206.999 480.511 206.246 480.722 205.701 481.142C205.156 481.562 204.772 482.011 204.55 482.489L202.641 481.807C202.982 481.011 203.437 480.392 204.005 479.949C204.579 479.5 205.204 479.187 205.88 479.011C206.562 478.83 207.232 478.739 207.891 478.739C208.312 478.739 208.795 478.79 209.34 478.892C209.891 478.989 210.423 479.19 210.934 479.497C211.451 479.804 211.88 480.267 212.221 480.886C212.562 481.506 212.732 482.335 212.732 483.375V492H210.721V490.227H210.619C210.482 490.511 210.255 490.815 209.937 491.139C209.619 491.463 209.195 491.739 208.667 491.966C208.138 492.193 207.494 492.307 206.732 492.307ZM207.039 490.5C207.835 490.5 208.505 490.344 209.05 490.031C209.602 489.719 210.016 489.315 210.295 488.821C210.579 488.327 210.721 487.807 210.721 487.261V485.42C210.636 485.523 210.448 485.616 210.158 485.702C209.874 485.781 209.545 485.852 209.17 485.915C208.8 485.972 208.44 486.023 208.087 486.068C207.741 486.108 207.46 486.142 207.244 486.17C206.721 486.239 206.232 486.349 205.778 486.503C205.329 486.651 204.965 486.875 204.687 487.176C204.414 487.472 204.278 487.875 204.278 488.386C204.278 489.085 204.536 489.614 205.053 489.972C205.576 490.324 206.238 490.5 207.039 490.5ZM216.403 492V478.909H218.415V492H216.403ZM217.426 476.727C217.034 476.727 216.696 476.594 216.412 476.327C216.134 476.06 215.994 475.739 215.994 475.364C215.994 474.989 216.134 474.668 216.412 474.401C216.696 474.134 217.034 474 217.426 474C217.818 474 218.153 474.134 218.432 474.401C218.716 474.668 218.858 474.989 218.858 475.364C218.858 475.739 218.716 476.06 218.432 476.327C218.153 476.594 217.818 476.727 217.426 476.727ZM224.11 474.545V492H222.099V474.545H224.11ZM237.067 481.841L235.26 482.352C235.146 482.051 234.979 481.759 234.757 481.474C234.541 481.185 234.246 480.946 233.871 480.759C233.496 480.571 233.016 480.477 232.43 480.477C231.629 480.477 230.962 480.662 230.428 481.031C229.899 481.395 229.635 481.858 229.635 482.42C229.635 482.92 229.817 483.315 230.18 483.605C230.544 483.895 231.112 484.136 231.885 484.33L233.828 484.807C234.999 485.091 235.871 485.526 236.445 486.111C237.018 486.69 237.305 487.437 237.305 488.352C237.305 489.102 237.089 489.773 236.658 490.364C236.232 490.955 235.635 491.42 234.868 491.761C234.101 492.102 233.209 492.273 232.192 492.273C230.857 492.273 229.751 491.983 228.876 491.403C228.001 490.824 227.447 489.977 227.214 488.864L229.124 488.386C229.305 489.091 229.649 489.619 230.155 489.972C230.666 490.324 231.334 490.5 232.158 490.5C233.095 490.5 233.839 490.301 234.391 489.903C234.947 489.5 235.226 489.017 235.226 488.455C235.226 488 235.067 487.619 234.749 487.312C234.43 487 233.942 486.767 233.283 486.614L231.101 486.102C229.902 485.818 229.021 485.378 228.459 484.781C227.902 484.179 227.624 483.426 227.624 482.523C227.624 481.784 227.831 481.131 228.246 480.562C228.666 479.994 229.237 479.548 229.959 479.224C230.686 478.901 231.51 478.739 232.43 478.739C233.726 478.739 234.743 479.023 235.482 479.591C236.226 480.159 236.754 480.909 237.067 481.841ZM252.776 478.909V480.614H245.992V478.909H252.776ZM247.969 475.773H249.981V488.25C249.981 488.818 250.063 489.244 250.228 489.528C250.398 489.807 250.614 489.994 250.876 490.091C251.143 490.182 251.424 490.227 251.719 490.227C251.941 490.227 252.123 490.216 252.265 490.193C252.407 490.165 252.521 490.142 252.606 490.125L253.015 491.932C252.879 491.983 252.688 492.034 252.444 492.085C252.2 492.142 251.89 492.17 251.515 492.17C250.947 492.17 250.39 492.048 249.844 491.804C249.305 491.56 248.856 491.188 248.498 490.688C248.146 490.188 247.969 489.557 247.969 488.795V475.773ZM260.979 492.273C259.798 492.273 258.761 491.991 257.869 491.429C256.982 490.866 256.289 490.08 255.789 489.068C255.295 488.057 255.048 486.875 255.048 485.523C255.048 484.159 255.295 482.969 255.789 481.952C256.289 480.935 256.982 480.145 257.869 479.582C258.761 479.02 259.798 478.739 260.979 478.739C262.161 478.739 263.195 479.02 264.082 479.582C264.974 480.145 265.667 480.935 266.161 481.952C266.661 482.969 266.911 484.159 266.911 485.523C266.911 486.875 266.661 488.057 266.161 489.068C265.667 490.08 264.974 490.866 264.082 491.429C263.195 491.991 262.161 492.273 260.979 492.273ZM260.979 490.466C261.877 490.466 262.616 490.236 263.195 489.776C263.775 489.315 264.204 488.71 264.482 487.96C264.761 487.21 264.9 486.398 264.9 485.523C264.9 484.648 264.761 483.832 264.482 483.077C264.204 482.321 263.775 481.71 263.195 481.244C262.616 480.778 261.877 480.545 260.979 480.545C260.082 480.545 259.343 480.778 258.763 481.244C258.184 481.71 257.755 482.321 257.477 483.077C257.198 483.832 257.059 484.648 257.059 485.523C257.059 486.398 257.198 487.21 257.477 487.96C257.755 488.71 258.184 489.315 258.763 489.776C259.343 490.236 260.082 490.466 260.979 490.466ZM277.004 492V474.545H279.016V480.989H279.186C279.334 480.761 279.538 480.472 279.8 480.119C280.067 479.761 280.447 479.443 280.942 479.165C281.442 478.881 282.118 478.739 282.97 478.739C284.072 478.739 285.044 479.014 285.885 479.565C286.726 480.116 287.382 480.898 287.854 481.909C288.325 482.92 288.561 484.114 288.561 485.489C288.561 486.875 288.325 488.077 287.854 489.094C287.382 490.105 286.729 490.889 285.893 491.446C285.058 491.997 284.095 492.273 283.004 492.273C282.163 492.273 281.49 492.134 280.984 491.855C280.479 491.571 280.089 491.25 279.817 490.892C279.544 490.528 279.334 490.227 279.186 489.989H278.947V492H277.004ZM278.982 485.455C278.982 486.443 279.126 487.315 279.416 488.071C279.706 488.821 280.129 489.409 280.686 489.835C281.243 490.256 281.925 490.466 282.732 490.466C283.572 490.466 284.274 490.244 284.837 489.801C285.405 489.352 285.831 488.75 286.115 487.994C286.405 487.233 286.55 486.386 286.55 485.455C286.55 484.534 286.408 483.705 286.124 482.966C285.845 482.222 285.422 481.634 284.854 481.202C284.291 480.764 283.584 480.545 282.732 480.545C281.913 480.545 281.226 480.753 280.669 481.168C280.112 481.577 279.692 482.151 279.408 482.889C279.124 483.622 278.982 484.477 278.982 485.455ZM296.956 492.273C295.774 492.273 294.737 491.991 293.845 491.429C292.959 490.866 292.266 490.08 291.766 489.068C291.271 488.057 291.024 486.875 291.024 485.523C291.024 484.159 291.271 482.969 291.766 481.952C292.266 480.935 292.959 480.145 293.845 479.582C294.737 479.02 295.774 478.739 296.956 478.739C298.138 478.739 299.172 479.02 300.058 479.582C300.95 480.145 301.643 480.935 302.138 481.952C302.638 482.969 302.888 484.159 302.888 485.523C302.888 486.875 302.638 488.057 302.138 489.068C301.643 490.08 300.95 490.866 300.058 491.429C299.172 491.991 298.138 492.273 296.956 492.273ZM296.956 490.466C297.854 490.466 298.592 490.236 299.172 489.776C299.751 489.315 300.18 488.71 300.459 487.96C300.737 487.21 300.876 486.398 300.876 485.523C300.876 484.648 300.737 483.832 300.459 483.077C300.18 482.321 299.751 481.71 299.172 481.244C298.592 480.778 297.854 480.545 296.956 480.545C296.058 480.545 295.32 480.778 294.74 481.244C294.161 481.71 293.732 482.321 293.453 483.077C293.175 483.832 293.036 484.648 293.036 485.523C293.036 486.398 293.175 487.21 293.453 487.96C293.732 488.71 294.161 489.315 294.74 489.776C295.32 490.236 296.058 490.466 296.956 490.466ZM311.276 492.273C310.094 492.273 309.058 491.991 308.165 491.429C307.279 490.866 306.586 490.08 306.086 489.068C305.592 488.057 305.344 486.875 305.344 485.523C305.344 484.159 305.592 482.969 306.086 481.952C306.586 480.935 307.279 480.145 308.165 479.582C309.058 479.02 310.094 478.739 311.276 478.739C312.458 478.739 313.492 479.02 314.379 479.582C315.271 480.145 315.964 480.935 316.458 481.952C316.958 482.969 317.208 484.159 317.208 485.523C317.208 486.875 316.958 488.057 316.458 489.068C315.964 490.08 315.271 490.866 314.379 491.429C313.492 491.991 312.458 492.273 311.276 492.273ZM311.276 490.466C312.174 490.466 312.913 490.236 313.492 489.776C314.072 489.315 314.501 488.71 314.779 487.96C315.058 487.21 315.197 486.398 315.197 485.523C315.197 484.648 315.058 483.832 314.779 483.077C314.501 482.321 314.072 481.71 313.492 481.244C312.913 480.778 312.174 480.545 311.276 480.545C310.379 480.545 309.64 480.778 309.06 481.244C308.481 481.71 308.052 482.321 307.773 483.077C307.495 483.832 307.356 484.648 307.356 485.523C307.356 486.398 307.495 487.21 307.773 487.96C308.052 488.71 308.481 489.315 309.06 489.776C309.64 490.236 310.379 490.466 311.276 490.466ZM322.153 487.227L322.119 484.739H322.528L328.256 478.909H330.744L324.642 485.08H324.472L322.153 487.227ZM320.278 492V474.545H322.29V492H320.278ZM328.597 492L323.483 485.523L324.915 484.125L331.153 492H328.597ZM343.935 492.307C343.106 492.307 342.353 492.151 341.677 491.838C341.001 491.52 340.464 491.062 340.066 490.466C339.668 489.864 339.469 489.136 339.469 488.284C339.469 487.534 339.617 486.926 339.913 486.46C340.208 485.989 340.603 485.619 341.097 485.352C341.592 485.085 342.137 484.886 342.734 484.756C343.336 484.619 343.941 484.511 344.549 484.432C345.344 484.33 345.989 484.253 346.484 484.202C346.984 484.145 347.347 484.051 347.575 483.92C347.808 483.79 347.924 483.562 347.924 483.239V483.17C347.924 482.33 347.694 481.676 347.234 481.21C346.779 480.744 346.089 480.511 345.163 480.511C344.202 480.511 343.45 480.722 342.904 481.142C342.359 481.562 341.975 482.011 341.754 482.489L339.844 481.807C340.185 481.011 340.64 480.392 341.208 479.949C341.782 479.5 342.407 479.187 343.083 479.011C343.765 478.83 344.435 478.739 345.094 478.739C345.515 478.739 345.998 478.79 346.543 478.892C347.094 478.989 347.626 479.19 348.137 479.497C348.654 479.804 349.083 480.267 349.424 480.886C349.765 481.506 349.935 482.335 349.935 483.375V492H347.924V490.227H347.822C347.685 490.511 347.458 490.815 347.14 491.139C346.822 491.463 346.398 491.739 345.87 491.966C345.342 492.193 344.697 492.307 343.935 492.307ZM344.242 490.5C345.038 490.5 345.708 490.344 346.254 490.031C346.805 489.719 347.219 489.315 347.498 488.821C347.782 488.327 347.924 487.807 347.924 487.261V485.42C347.839 485.523 347.651 485.616 347.362 485.702C347.077 485.781 346.748 485.852 346.373 485.915C346.004 485.972 345.643 486.023 345.29 486.068C344.944 486.108 344.663 486.142 344.447 486.17C343.924 486.239 343.435 486.349 342.981 486.503C342.532 486.651 342.168 486.875 341.89 487.176C341.617 487.472 341.481 487.875 341.481 488.386C341.481 489.085 341.739 489.614 342.256 489.972C342.779 490.324 343.441 490.5 344.242 490.5ZM355.618 484.125V492H353.607V478.909H355.55V480.955H355.72C356.027 480.29 356.493 479.756 357.118 479.352C357.743 478.943 358.55 478.739 359.538 478.739C360.425 478.739 361.2 478.92 361.865 479.284C362.53 479.642 363.047 480.188 363.416 480.92C363.786 481.648 363.97 482.568 363.97 483.682V492H361.959V483.818C361.959 482.79 361.692 481.989 361.158 481.415C360.624 480.835 359.891 480.545 358.959 480.545C358.317 480.545 357.743 480.685 357.237 480.963C356.737 481.241 356.342 481.648 356.053 482.182C355.763 482.716 355.618 483.364 355.618 484.125ZM378.248 492.307C377.418 492.307 376.665 492.151 375.989 491.838C375.313 491.52 374.776 491.062 374.379 490.466C373.981 489.864 373.782 489.136 373.782 488.284C373.782 487.534 373.93 486.926 374.225 486.46C374.521 485.989 374.915 485.619 375.41 485.352C375.904 485.085 376.45 484.886 377.046 484.756C377.648 484.619 378.254 484.511 378.862 484.432C379.657 484.33 380.302 484.253 380.796 484.202C381.296 484.145 381.66 484.051 381.887 483.92C382.12 483.79 382.237 483.562 382.237 483.239V483.17C382.237 482.33 382.006 481.676 381.546 481.21C381.092 480.744 380.401 480.511 379.475 480.511C378.515 480.511 377.762 480.722 377.217 481.142C376.671 481.562 376.288 482.011 376.066 482.489L374.157 481.807C374.498 481.011 374.952 480.392 375.521 479.949C376.094 479.5 376.719 479.187 377.396 479.011C378.077 478.83 378.748 478.739 379.407 478.739C379.827 478.739 380.31 478.79 380.856 478.892C381.407 478.989 381.938 479.19 382.45 479.497C382.967 479.804 383.396 480.267 383.737 480.886C384.077 481.506 384.248 482.335 384.248 483.375V492H382.237V490.227H382.134C381.998 490.511 381.771 490.815 381.452 491.139C381.134 491.463 380.711 491.739 380.183 491.966C379.654 492.193 379.009 492.307 378.248 492.307ZM378.555 490.5C379.35 490.5 380.021 490.344 380.566 490.031C381.117 489.719 381.532 489.315 381.81 488.821C382.094 488.327 382.237 487.807 382.237 487.261V485.42C382.151 485.523 381.964 485.616 381.674 485.702C381.39 485.781 381.06 485.852 380.685 485.915C380.316 485.972 379.955 486.023 379.603 486.068C379.256 486.108 378.975 486.142 378.759 486.17C378.237 486.239 377.748 486.349 377.293 486.503C376.844 486.651 376.481 486.875 376.202 487.176C375.93 487.472 375.793 487.875 375.793 488.386C375.793 489.085 376.052 489.614 376.569 489.972C377.092 490.324 377.754 490.5 378.555 490.5ZM387.919 496.909V478.909H389.862V480.989H390.101C390.249 480.761 390.453 480.472 390.714 480.119C390.982 479.761 391.362 479.443 391.857 479.165C392.357 478.881 393.033 478.739 393.885 478.739C394.987 478.739 395.959 479.014 396.8 479.565C397.641 480.116 398.297 480.898 398.768 481.909C399.24 482.92 399.476 484.114 399.476 485.489C399.476 486.875 399.24 488.077 398.768 489.094C398.297 490.105 397.643 490.889 396.808 491.446C395.973 491.997 395.01 492.273 393.919 492.273C393.078 492.273 392.405 492.134 391.899 491.855C391.393 491.571 391.004 491.25 390.732 490.892C390.459 490.528 390.249 490.227 390.101 489.989H389.93V496.909H387.919ZM389.896 485.455C389.896 486.443 390.041 487.315 390.331 488.071C390.621 488.821 391.044 489.409 391.601 489.835C392.158 490.256 392.839 490.466 393.646 490.466C394.487 490.466 395.189 490.244 395.751 489.801C396.32 489.352 396.746 488.75 397.03 487.994C397.32 487.233 397.464 486.386 397.464 485.455C397.464 484.534 397.322 483.705 397.038 482.966C396.76 482.222 396.337 481.634 395.768 481.202C395.206 480.764 394.499 480.545 393.646 480.545C392.828 480.545 392.141 480.753 391.584 481.168C391.027 481.577 390.607 482.151 390.322 482.889C390.038 483.622 389.896 484.477 389.896 485.455ZM402.544 496.909V478.909H404.487V480.989H404.726C404.874 480.761 405.078 480.472 405.339 480.119C405.607 479.761 405.987 479.443 406.482 479.165C406.982 478.881 407.658 478.739 408.51 478.739C409.612 478.739 410.584 479.014 411.425 479.565C412.266 480.116 412.922 480.898 413.393 481.909C413.865 482.92 414.101 484.114 414.101 485.489C414.101 486.875 413.865 488.077 413.393 489.094C412.922 490.105 412.268 490.889 411.433 491.446C410.598 491.997 409.635 492.273 408.544 492.273C407.703 492.273 407.03 492.134 406.524 491.855C406.018 491.571 405.629 491.25 405.357 490.892C405.084 490.528 404.874 490.227 404.726 489.989H404.555V496.909H402.544ZM404.521 485.455C404.521 486.443 404.666 487.315 404.956 488.071C405.246 488.821 405.669 489.409 406.226 489.835C406.783 490.256 407.464 490.466 408.271 490.466C409.112 490.466 409.814 490.244 410.376 489.801C410.945 489.352 411.371 488.75 411.655 487.994C411.945 487.233 412.089 486.386 412.089 485.455C412.089 484.534 411.947 483.705 411.663 482.966C411.385 482.222 410.962 481.634 410.393 481.202C409.831 480.764 409.124 480.545 408.271 480.545C407.453 480.545 406.766 480.753 406.209 481.168C405.652 481.577 405.232 482.151 404.947 482.889C404.663 483.622 404.521 484.477 404.521 485.455ZM422.487 492.273C421.305 492.273 420.268 491.991 419.376 491.429C418.49 490.866 417.797 490.08 417.297 489.068C416.803 488.057 416.555 486.875 416.555 485.523C416.555 484.159 416.803 482.969 417.297 481.952C417.797 480.935 418.49 480.145 419.376 479.582C420.268 479.02 421.305 478.739 422.487 478.739C423.669 478.739 424.703 479.02 425.589 479.582C426.482 480.145 427.175 480.935 427.669 481.952C428.169 482.969 428.419 484.159 428.419 485.523C428.419 486.875 428.169 488.057 427.669 489.068C427.175 490.08 426.482 490.866 425.589 491.429C424.703 491.991 423.669 492.273 422.487 492.273ZM422.487 490.466C423.385 490.466 424.124 490.236 424.703 489.776C425.283 489.315 425.712 488.71 425.99 487.96C426.268 487.21 426.408 486.398 426.408 485.523C426.408 484.648 426.268 483.832 425.99 483.077C425.712 482.321 425.283 481.71 424.703 481.244C424.124 480.778 423.385 480.545 422.487 480.545C421.589 480.545 420.851 480.778 420.271 481.244C419.692 481.71 419.263 482.321 418.984 483.077C418.706 483.832 418.567 484.648 418.567 485.523C418.567 486.398 418.706 487.21 418.984 487.96C419.263 488.71 419.692 489.315 420.271 489.776C420.851 490.236 421.589 490.466 422.487 490.466ZM431.489 492V478.909H433.501V492H431.489ZM432.512 476.727C432.12 476.727 431.782 476.594 431.498 476.327C431.219 476.06 431.08 475.739 431.08 475.364C431.08 474.989 431.219 474.668 431.498 474.401C431.782 474.134 432.12 474 432.512 474C432.904 474 433.239 474.134 433.518 474.401C433.802 474.668 433.944 474.989 433.944 475.364C433.944 475.739 433.802 476.06 433.518 476.327C433.239 476.594 432.904 476.727 432.512 476.727ZM439.196 484.125V492H437.185V478.909H439.128V480.955H439.298C439.605 480.29 440.071 479.756 440.696 479.352C441.321 478.943 442.128 478.739 443.116 478.739C444.003 478.739 444.778 478.92 445.443 479.284C446.108 479.642 446.625 480.188 446.994 480.92C447.364 481.648 447.548 482.568 447.548 483.682V492H445.537V483.818C445.537 482.79 445.27 481.989 444.736 481.415C444.202 480.835 443.469 480.545 442.537 480.545C441.895 480.545 441.321 480.685 440.815 480.963C440.315 481.241 439.92 481.648 439.631 482.182C439.341 482.716 439.196 483.364 439.196 484.125ZM456.917 478.909V480.614H450.133V478.909H456.917ZM452.11 475.773H454.121V488.25C454.121 488.818 454.204 489.244 454.369 489.528C454.539 489.807 454.755 489.994 455.016 490.091C455.283 490.182 455.565 490.227 455.86 490.227C456.082 490.227 456.263 490.216 456.406 490.193C456.548 490.165 456.661 490.142 456.746 490.125L457.156 491.932C457.019 491.983 456.829 492.034 456.585 492.085C456.34 492.142 456.031 492.17 455.656 492.17C455.087 492.17 454.531 492.048 453.985 491.804C453.445 491.56 452.996 491.188 452.638 490.688C452.286 490.188 452.11 489.557 452.11 488.795V475.773ZM459.942 492V478.909H461.886V480.955H462.056C462.329 480.256 462.769 479.713 463.377 479.327C463.985 478.935 464.715 478.739 465.567 478.739C466.431 478.739 467.15 478.935 467.724 479.327C468.303 479.713 468.755 480.256 469.079 480.955H469.215C469.55 480.278 470.053 479.741 470.724 479.344C471.394 478.94 472.198 478.739 473.136 478.739C474.306 478.739 475.263 479.105 476.008 479.838C476.752 480.565 477.124 481.699 477.124 483.239V492H475.113V483.239C475.113 482.273 474.849 481.582 474.32 481.168C473.792 480.753 473.17 480.545 472.454 480.545C471.533 480.545 470.82 480.824 470.315 481.381C469.809 481.932 469.556 482.631 469.556 483.477V492H467.511V483.034C467.511 482.29 467.269 481.69 466.786 481.236C466.303 480.776 465.681 480.545 464.92 480.545C464.397 480.545 463.908 480.685 463.454 480.963C463.005 481.241 462.641 481.628 462.363 482.122C462.09 482.611 461.954 483.176 461.954 483.818V492H459.942ZM486.29 492.273C485.029 492.273 483.941 491.994 483.026 491.438C482.117 490.875 481.415 490.091 480.921 489.085C480.433 488.074 480.188 486.898 480.188 485.557C480.188 484.216 480.433 483.034 480.921 482.011C481.415 480.983 482.103 480.182 482.984 479.608C483.87 479.028 484.904 478.739 486.086 478.739C486.768 478.739 487.441 478.852 488.106 479.08C488.771 479.307 489.376 479.676 489.921 480.188C490.467 480.693 490.901 481.364 491.225 482.199C491.549 483.034 491.711 484.062 491.711 485.284V486.136H481.62V484.398H489.665C489.665 483.659 489.518 483 489.222 482.42C488.933 481.841 488.518 481.384 487.978 481.048C487.444 480.713 486.813 480.545 486.086 480.545C485.285 480.545 484.592 480.744 484.006 481.142C483.427 481.534 482.981 482.045 482.668 482.676C482.356 483.307 482.2 483.983 482.2 484.705V485.864C482.2 486.852 482.37 487.69 482.711 488.378C483.058 489.06 483.538 489.58 484.151 489.938C484.765 490.29 485.478 490.466 486.29 490.466C486.819 490.466 487.296 490.392 487.722 490.244C488.154 490.091 488.526 489.864 488.839 489.562C489.151 489.256 489.393 488.875 489.563 488.42L491.506 488.966C491.302 489.625 490.958 490.205 490.475 490.705C489.992 491.199 489.396 491.585 488.685 491.864C487.975 492.136 487.177 492.273 486.29 492.273ZM496.782 484.125V492H494.771V478.909H496.714V480.955H496.884C497.191 480.29 497.657 479.756 498.282 479.352C498.907 478.943 499.714 478.739 500.702 478.739C501.589 478.739 502.364 478.92 503.029 479.284C503.694 479.642 504.211 480.188 504.58 480.92C504.95 481.648 505.134 482.568 505.134 483.682V492H503.123V483.818C503.123 482.79 502.856 481.989 502.322 481.415C501.788 480.835 501.055 480.545 500.123 480.545C499.481 480.545 498.907 480.685 498.401 480.963C497.901 481.241 497.506 481.648 497.217 482.182C496.927 482.716 496.782 483.364 496.782 484.125ZM514.503 478.909V480.614H507.719V478.909H514.503ZM509.696 475.773H511.707V488.25C511.707 488.818 511.79 489.244 511.955 489.528C512.125 489.807 512.341 489.994 512.602 490.091C512.869 490.182 513.151 490.227 513.446 490.227C513.668 490.227 513.849 490.216 513.991 490.193C514.134 490.165 514.247 490.142 514.332 490.125L514.741 491.932C514.605 491.983 514.415 492.034 514.17 492.085C513.926 492.142 513.616 492.17 513.241 492.17C512.673 492.17 512.116 492.048 511.571 491.804C511.031 491.56 510.582 491.188 510.224 490.688C509.872 490.188 509.696 489.557 509.696 488.795V475.773Z" fill="#8B88AC"/>
</svg>
